G04 Layer_Color=2752767*
%FSLAX43Y43*%
%MOMM*%
G71*
G01*
G75*
%ADD56C,0.051*%
%ADD57C,0.068*%
D56*
X54922Y55697D02*
Y56103D01*
X55328D01*
Y55697D01*
X54922D01*
X62147Y59747D02*
Y60153D01*
X62553D01*
Y59747D01*
X62147D01*
X52247Y67672D02*
Y68078D01*
X52653D01*
Y67672D01*
X52247D01*
X58847Y66622D02*
Y67028D01*
X59253D01*
Y66622D01*
X58847D01*
X64022Y55322D02*
Y55728D01*
X64428D01*
Y55322D01*
X64022D01*
X66472Y60797D02*
Y61203D01*
X66878D01*
Y60797D01*
X66472D01*
X64597Y58322D02*
Y58728D01*
X65003D01*
Y58322D01*
X64597D01*
X64222Y57022D02*
Y57428D01*
X64628D01*
Y57022D01*
X64222D01*
X59897Y54897D02*
Y55303D01*
X60303D01*
Y54897D01*
X59897D01*
X57297Y53997D02*
Y54403D01*
X57703D01*
Y53997D01*
X57297D01*
X56697Y54397D02*
Y54803D01*
X57103D01*
Y54397D01*
X56697D01*
X59747Y59572D02*
Y59978D01*
X60153D01*
Y59572D01*
X59747D01*
X61752Y49042D02*
Y49448D01*
X62158D01*
Y49042D01*
X61752D01*
X59752Y49542D02*
Y49948D01*
X60158D01*
Y49542D01*
X59752D01*
X57752D02*
Y49948D01*
X58158D01*
Y49542D01*
X57752D01*
X55002D02*
Y49948D01*
X55408D01*
Y49542D01*
X55002D01*
X51752Y49317D02*
Y49723D01*
X52158D01*
Y49317D01*
X51752D01*
X53002Y49542D02*
Y49948D01*
X53408D01*
Y49542D01*
X53002D01*
X62022Y68047D02*
Y68453D01*
X62428D01*
Y68047D01*
X62022D01*
X54122Y60497D02*
Y60903D01*
X54528D01*
Y60497D01*
X54122D01*
X53322Y60497D02*
Y60903D01*
X53728D01*
Y60497D01*
X53322D01*
X53652Y53747D02*
Y54153D01*
X54058D01*
Y53747D01*
X53652D01*
X55122D02*
Y54153D01*
X55528D01*
Y53747D01*
X55122D01*
X52562Y62157D02*
Y62563D01*
X52968D01*
Y62157D01*
X52562D01*
X58652Y53737D02*
Y54143D01*
X59058D01*
Y53737D01*
X58652D01*
X50902Y53877D02*
Y54283D01*
X51308D01*
Y53877D01*
X50902D01*
X61722Y53747D02*
Y54153D01*
X62128D01*
Y53747D01*
X61722D01*
X51512Y53817D02*
Y54223D01*
X51918D01*
Y53817D01*
X51512D01*
X53012Y53747D02*
Y54153D01*
X53418D01*
Y53747D01*
X53012D01*
X62122Y60497D02*
Y60903D01*
X62528D01*
Y60497D01*
X62122D01*
X59722Y55697D02*
Y56103D01*
X60128D01*
Y55697D01*
X59722D01*
X59842Y53727D02*
Y54133D01*
X60248D01*
Y53727D01*
X59842D01*
X62522Y53922D02*
Y54328D01*
X62928D01*
Y53922D01*
X62522D01*
X54072Y62247D02*
Y62653D01*
X54478D01*
Y62247D01*
X54072D01*
X51322Y62597D02*
Y63003D01*
X51728D01*
Y62597D01*
X51322D01*
X58922Y60497D02*
Y60903D01*
X59328D01*
Y60497D01*
X58922D01*
X60122Y62347D02*
Y62753D01*
X60528D01*
Y62347D01*
X60122D01*
X61722D02*
Y62753D01*
X62128D01*
Y62347D01*
X61722D01*
X62422D02*
Y62753D01*
X62828D01*
Y62347D01*
X62422D01*
X63182D02*
Y62753D01*
X63588D01*
Y62347D01*
X63182D01*
X60882D02*
Y62753D01*
X61288D01*
Y62347D01*
X60882D01*
X59322D02*
Y62753D01*
X59728D01*
Y62347D01*
X59322D01*
X58472D02*
Y62753D01*
X58878D01*
Y62347D01*
X58472D01*
X57752D02*
Y62753D01*
X58158D01*
Y62347D01*
X57752D01*
X56522Y60497D02*
Y60903D01*
X56928D01*
Y60497D01*
X56522D01*
X52972Y62547D02*
Y62953D01*
X53378D01*
Y62547D01*
X52972D01*
X63832Y56387D02*
Y56793D01*
X64238D01*
Y56387D01*
X63832D01*
X53302Y54727D02*
Y55133D01*
X53708D01*
Y54727D01*
X53302D01*
X56122Y54677D02*
Y55083D01*
X56528D01*
Y54677D01*
X56122D01*
X54922Y60497D02*
Y60903D01*
X55328D01*
Y60497D01*
X54922D01*
X53322Y61297D02*
Y61703D01*
X53728D01*
Y61297D01*
X53322D01*
Y56497D02*
Y56903D01*
X53728D01*
Y56497D01*
X53322D01*
X54122D02*
Y56903D01*
X54528D01*
Y56497D01*
X54122D01*
X55722Y61297D02*
Y61703D01*
X56128D01*
Y61297D01*
X55722D01*
Y60497D02*
Y60903D01*
X56128D01*
Y60497D01*
X55722D01*
X50192Y56047D02*
Y56453D01*
X50598D01*
Y56047D01*
X50192D01*
X51702Y54797D02*
Y55203D01*
X52108D01*
Y54797D01*
X51702D01*
X52422Y54697D02*
Y55103D01*
X52828D01*
Y54697D01*
X52422D01*
X50932Y54607D02*
Y55013D01*
X51338D01*
Y54607D01*
X50932D01*
X54122Y61297D02*
Y61703D01*
X54528D01*
Y61297D01*
X54122D01*
X54922D02*
Y61703D01*
X55328D01*
Y61297D01*
X54922D01*
X56522Y59697D02*
Y60103D01*
X56928D01*
Y59697D01*
X56522D01*
X52522Y61297D02*
Y61703D01*
X52928D01*
Y61297D01*
X52522D01*
X55722Y59697D02*
Y60103D01*
X56128D01*
Y59697D01*
X55722D01*
X50562Y61407D02*
Y61813D01*
X50968D01*
Y61407D01*
X50562D01*
X50922Y62237D02*
Y62643D01*
X51328D01*
Y62237D01*
X50922D01*
X51702D02*
Y62643D01*
X52108D01*
Y62237D01*
X51702D01*
X57322Y59697D02*
Y60103D01*
X57728D01*
Y59697D01*
X57322D01*
X50812Y56287D02*
Y56693D01*
X51218D01*
Y56287D01*
X50812D01*
X34797Y69497D02*
Y69903D01*
X35203D01*
Y69497D01*
X34797D01*
X20122Y60997D02*
Y61403D01*
X20528D01*
Y60997D01*
X20122D01*
X22647D02*
Y61403D01*
X23053D01*
Y60997D01*
X22647D01*
X29172Y79897D02*
Y80303D01*
X29578D01*
Y79897D01*
X29172D01*
X29097Y86747D02*
Y87153D01*
X29503D01*
Y86747D01*
X29097D01*
X29397Y83722D02*
Y84128D01*
X29803D01*
Y83722D01*
X29397D01*
X30422Y86197D02*
Y86603D01*
X30828D01*
Y86197D01*
X30422D01*
X31372Y82672D02*
Y83078D01*
X31778D01*
Y82672D01*
X31372D01*
X33872Y80922D02*
Y81328D01*
X34278D01*
Y80922D01*
X33872D01*
X6822Y97072D02*
Y97478D01*
X7228D01*
Y97072D01*
X6822D01*
X1972Y97272D02*
Y97678D01*
X2378D01*
Y97272D01*
X1972D01*
X21434Y51822D02*
Y52228D01*
X21841D01*
Y51822D01*
X21434D01*
X21084Y52372D02*
Y52778D01*
X21491D01*
Y52372D01*
X21084D01*
X35972Y52847D02*
Y53253D01*
X36378D01*
Y52847D01*
X35972D01*
X32697Y52922D02*
Y53328D01*
X33103D01*
Y52922D01*
X32697D01*
X32297Y55497D02*
Y55903D01*
X32703D01*
Y55497D01*
X32297D01*
X33047Y69622D02*
Y70028D01*
X33453D01*
Y69622D01*
X33047D01*
X21822Y52872D02*
Y53278D01*
X22228D01*
Y52872D01*
X21822D01*
X35547Y55572D02*
Y55978D01*
X35953D01*
Y55572D01*
X35547D01*
X24687Y62737D02*
Y63143D01*
X25093D01*
Y62737D01*
X24687D01*
X20597Y62747D02*
Y63153D01*
X21003D01*
Y62747D01*
X20597D01*
X20622Y54472D02*
Y54878D01*
X21028D01*
Y54472D01*
X20622D01*
X27547D02*
Y54878D01*
X27953D01*
Y54472D01*
X27547D01*
X21922Y62147D02*
Y62553D01*
X22328D01*
Y62147D01*
X21922D01*
X28322Y61522D02*
Y61928D01*
X28728D01*
Y61522D01*
X28322D01*
X34047Y58847D02*
Y59253D01*
X34453D01*
Y58847D01*
X34047D01*
X35972Y53497D02*
Y53903D01*
X36378D01*
Y53497D01*
X35972D01*
X18822Y78372D02*
Y78778D01*
X19228D01*
Y78372D01*
X18822D01*
X11497Y88247D02*
Y88653D01*
X11903D01*
Y88247D01*
X11497D01*
X8872Y90447D02*
Y90853D01*
X9278D01*
Y90447D01*
X8872D01*
X2547Y81547D02*
Y81953D01*
X2953D01*
Y81547D01*
X2547D01*
X4047Y83598D02*
Y84004D01*
X4453D01*
Y83598D01*
X4047D01*
X3547Y85547D02*
Y85953D01*
X3953D01*
Y85547D01*
X3547D01*
X3047Y89297D02*
Y89703D01*
X3453D01*
Y89297D01*
X3047D01*
X4047Y90297D02*
Y90703D01*
X4453D01*
Y90297D01*
X4047D01*
X1272Y92772D02*
Y93178D01*
X1678D01*
Y92772D01*
X1272D01*
X12647Y84272D02*
Y84678D01*
X13053D01*
Y84272D01*
X12647D01*
X22347Y78697D02*
Y79103D01*
X22753D01*
Y78697D01*
X22347D01*
Y80897D02*
Y81303D01*
X22753D01*
Y80897D01*
X22347D01*
X21797Y76572D02*
Y76978D01*
X22203D01*
Y76572D01*
X21797D01*
X22347Y83047D02*
Y83453D01*
X22753D01*
Y83047D01*
X22347D01*
X9697Y90047D02*
Y90453D01*
X10103D01*
Y90047D01*
X9697D01*
X16872Y88497D02*
Y88903D01*
X17278D01*
Y88497D01*
X16872D01*
X10947Y85447D02*
Y85853D01*
X11353D01*
Y85447D01*
X10947D01*
X10922Y84247D02*
Y84653D01*
X11328D01*
Y84247D01*
X10922D01*
Y83022D02*
Y83428D01*
X11328D01*
Y83022D01*
X10922D01*
X14397D02*
Y83428D01*
X14803D01*
Y83022D01*
X14397D01*
Y84272D02*
Y84678D01*
X14803D01*
Y84272D01*
X14397D01*
Y85447D02*
Y85853D01*
X14803D01*
Y85447D01*
X14397D01*
X12672D02*
Y85853D01*
X13078D01*
Y85447D01*
X12672D01*
Y83022D02*
Y83428D01*
X13078D01*
Y83022D01*
X12672D01*
X5972Y81972D02*
Y82378D01*
X6378D01*
Y81972D01*
X5972D01*
Y79872D02*
Y80278D01*
X6378D01*
Y79872D01*
X5972D01*
X5897Y83072D02*
Y83478D01*
X6303D01*
Y83072D01*
X5897D01*
X8797Y78572D02*
Y78978D01*
X9203D01*
Y78572D01*
X8797D01*
X7872D02*
Y78978D01*
X8278D01*
Y78572D01*
X7872D01*
X8347D02*
Y78978D01*
X8753D01*
Y78572D01*
X8347D01*
X11797Y83672D02*
Y84078D01*
X12203D01*
Y83672D01*
X11797D01*
Y84872D02*
Y85278D01*
X12203D01*
Y84872D01*
X11797D01*
X13522D02*
Y85278D01*
X13928D01*
Y84872D01*
X13522D01*
Y83672D02*
Y84078D01*
X13928D01*
Y83672D01*
X13522D01*
X13997Y78522D02*
Y78928D01*
X14403D01*
Y78522D01*
X13997D01*
X13522Y78522D02*
Y78928D01*
X13928D01*
Y78522D01*
X13522D01*
X13022D02*
Y78928D01*
X13428D01*
Y78522D01*
X13022D01*
X9247Y90047D02*
Y90453D01*
X9653D01*
Y90047D01*
X9247D01*
X35047Y71697D02*
Y72103D01*
X35453D01*
Y71697D01*
X35047D01*
X33047D02*
Y72103D01*
X33453D01*
Y71697D01*
X33047D01*
X34922Y63247D02*
Y63653D01*
X35328D01*
Y63247D01*
X34922D01*
X35422Y63822D02*
Y64228D01*
X35828D01*
Y63822D01*
X35422D01*
X34822Y61022D02*
Y61428D01*
X35228D01*
Y61022D01*
X34822D01*
X34072Y65372D02*
Y65778D01*
X34478D01*
Y65372D01*
X34072D01*
X35422Y65797D02*
Y66203D01*
X35828D01*
Y65797D01*
X35422D01*
X35022Y65472D02*
Y65878D01*
X35428D01*
Y65472D01*
X35022D01*
X35372Y65097D02*
Y65503D01*
X35778D01*
Y65097D01*
X35372D01*
X34922Y63972D02*
Y64378D01*
X35328D01*
Y63972D01*
X34922D01*
X35422Y63297D02*
Y63703D01*
X35828D01*
Y63297D01*
X35422D01*
X35372Y62022D02*
Y62428D01*
X35778D01*
Y62022D01*
X35372D01*
Y61522D02*
Y61928D01*
X35778D01*
Y61522D01*
X35372D01*
Y61022D02*
Y61428D01*
X35778D01*
Y61022D01*
X35372D01*
X35347Y60522D02*
Y60928D01*
X35753D01*
Y60522D01*
X35347D01*
X34672Y59672D02*
Y60078D01*
X35078D01*
Y59672D01*
X34672D01*
X35422Y59197D02*
Y59603D01*
X35828D01*
Y59197D01*
X35422D01*
X32297Y53447D02*
Y53853D01*
X32703D01*
Y53447D01*
X32297D01*
X29022Y91272D02*
Y91678D01*
X29428D01*
Y91272D01*
X29022D01*
X33872Y79247D02*
Y79653D01*
X34278D01*
Y79247D01*
X33872D01*
X27997Y89247D02*
Y89653D01*
X28403D01*
Y89247D01*
X27997D01*
X30422Y88272D02*
Y88678D01*
X30828D01*
Y88272D01*
X30422D01*
X28097Y88222D02*
Y88628D01*
X28503D01*
Y88222D01*
X28097D01*
X30497Y91247D02*
Y91653D01*
X30903D01*
Y91247D01*
X30497D01*
X29747Y85722D02*
Y86128D01*
X30153D01*
Y85722D01*
X29747D01*
X36847Y85447D02*
Y85853D01*
X37253D01*
Y85447D01*
X36847D01*
X30422Y86772D02*
Y87178D01*
X30828D01*
Y86772D01*
X30422D01*
Y87297D02*
Y87703D01*
X30828D01*
Y87297D01*
X30422D01*
X30347Y89372D02*
Y89778D01*
X30753D01*
Y89372D01*
X30347D01*
X34547Y64922D02*
Y65328D01*
X34953D01*
Y64922D01*
X34547D01*
X32122Y64772D02*
Y65178D01*
X32528D01*
Y64772D01*
X32122D01*
X30822Y61522D02*
Y61928D01*
X31228D01*
Y61522D01*
X30822D01*
Y60222D02*
Y60628D01*
X31228D01*
Y60222D01*
X30822D01*
X34772Y62047D02*
Y62453D01*
X35178D01*
Y62047D01*
X34772D01*
X33447Y65397D02*
Y65803D01*
X33853D01*
Y65397D01*
X33447D01*
X33422Y64122D02*
Y64528D01*
X33828D01*
Y64122D01*
X33422D01*
Y62172D02*
Y62578D01*
X33828D01*
Y62172D01*
X33422D01*
Y60222D02*
Y60628D01*
X33828D01*
Y60222D01*
X33422D01*
Y60872D02*
Y61278D01*
X33828D01*
Y60872D01*
X33422D01*
Y59572D02*
Y59978D01*
X33828D01*
Y59572D01*
X33422D01*
X32122Y65422D02*
Y65828D01*
X32528D01*
Y65422D01*
X32122D01*
Y63472D02*
Y63878D01*
X32528D01*
Y63472D01*
X32122D01*
Y62822D02*
Y63228D01*
X32528D01*
Y62822D01*
X32122D01*
Y62172D02*
Y62578D01*
X32528D01*
Y62172D01*
X32122D01*
Y60872D02*
Y61278D01*
X32528D01*
Y60872D01*
X32122D01*
Y60222D02*
Y60628D01*
X32528D01*
Y60222D01*
X32122D01*
Y59572D02*
Y59978D01*
X32528D01*
Y59572D01*
X32122D01*
X30822Y63472D02*
Y63878D01*
X31228D01*
Y63472D01*
X30822D01*
Y64122D02*
Y64528D01*
X31228D01*
Y64122D01*
X30822D01*
Y65422D02*
Y65828D01*
X31228D01*
Y65422D01*
X30822D01*
X29522D02*
Y65828D01*
X29928D01*
Y65422D01*
X29522D01*
Y64772D02*
Y65178D01*
X29928D01*
Y64772D01*
X29522D01*
Y61522D02*
Y61928D01*
X29928D01*
Y61522D01*
X29522D01*
Y60222D02*
Y60628D01*
X29928D01*
Y60222D01*
X29522D01*
Y59572D02*
Y59978D01*
X29928D01*
Y59572D01*
X29522D01*
X30822D02*
Y59978D01*
X31228D01*
Y59572D01*
X30822D01*
Y64772D02*
Y65178D01*
X31228D01*
Y64772D01*
X30822D01*
X32122Y64122D02*
Y64528D01*
X32528D01*
Y64122D01*
X32122D01*
X29522Y62822D02*
Y63228D01*
X29928D01*
Y62822D01*
X29522D01*
X30822Y60872D02*
Y61278D01*
X31228D01*
Y60872D01*
X30822D01*
X33422Y63472D02*
Y63878D01*
X33828D01*
Y63472D01*
X33422D01*
Y61522D02*
Y61928D01*
X33828D01*
Y61522D01*
X33422D01*
Y62822D02*
Y63228D01*
X33828D01*
Y62822D01*
X33422D01*
X34722Y61522D02*
Y61928D01*
X35128D01*
Y61522D01*
X34722D01*
X34697Y62797D02*
Y63203D01*
X35103D01*
Y62797D01*
X34697D01*
X34822Y60522D02*
Y60928D01*
X35228D01*
Y60522D01*
X34822D01*
X29522Y64122D02*
Y64528D01*
X29928D01*
Y64122D01*
X29522D01*
X30822Y62822D02*
Y63228D01*
X31228D01*
Y62822D01*
X30822D01*
X32122Y61522D02*
Y61928D01*
X32528D01*
Y61522D01*
X32122D01*
X29522Y62172D02*
Y62578D01*
X29928D01*
Y62172D01*
X29522D01*
Y60872D02*
Y61278D01*
X29928D01*
Y60872D01*
X29522D01*
Y63472D02*
Y63878D01*
X29928D01*
Y63472D01*
X29522D01*
X30822Y62172D02*
Y62578D01*
X31228D01*
Y62172D01*
X30822D01*
X38322Y52947D02*
Y53353D01*
X38728D01*
Y52947D01*
X38322D01*
X28322Y62147D02*
Y62553D01*
X28728D01*
Y62147D01*
X28322D01*
X35047Y58847D02*
Y59253D01*
X35453D01*
Y58847D01*
X35047D01*
X35397Y59697D02*
Y60103D01*
X35803D01*
Y59697D01*
X35397D01*
X38872Y60722D02*
Y61128D01*
X39278D01*
Y60722D01*
X38872D01*
X40297Y61597D02*
Y62003D01*
X40703D01*
Y61597D01*
X40297D01*
X41047Y63722D02*
Y64128D01*
X41453D01*
Y63722D01*
X41047D01*
X41647Y63097D02*
Y63503D01*
X42053D01*
Y63097D01*
X41647D01*
X41022Y62597D02*
Y63003D01*
X41428D01*
Y62597D01*
X41022D01*
X56647Y51272D02*
Y51678D01*
X57053D01*
Y51272D01*
X56647D01*
X38422Y68622D02*
Y69028D01*
X38828D01*
Y68622D01*
X38422D01*
X41822Y61797D02*
Y62203D01*
X42228D01*
Y61797D01*
X41822D01*
X40697Y60622D02*
Y61028D01*
X41103D01*
Y60622D01*
X40697D01*
X39972D02*
Y61028D01*
X40378D01*
Y60622D01*
X39972D01*
X41872Y63872D02*
Y64278D01*
X42278D01*
Y63872D01*
X41872D01*
X39572Y61597D02*
Y62003D01*
X39978D01*
Y61597D01*
X39572D01*
X56522Y57297D02*
Y57703D01*
X56928D01*
Y57297D01*
X56522D01*
X38872Y61597D02*
Y62003D01*
X39278D01*
Y61597D01*
X38872D01*
X56522Y56497D02*
Y56903D01*
X56928D01*
Y56497D01*
X56522D01*
X52472Y76347D02*
Y76753D01*
X52878D01*
Y76347D01*
X52472D01*
X36147Y70747D02*
Y71153D01*
X36553D01*
Y70747D01*
X36147D01*
Y76297D02*
Y76703D01*
X36553D01*
Y76297D01*
X36147D01*
Y76797D02*
Y77203D01*
X36553D01*
Y76797D01*
X36147D01*
X34947Y46572D02*
Y46978D01*
X35353D01*
Y46572D01*
X34947D01*
Y47072D02*
Y47478D01*
X35353D01*
Y47072D01*
X34947D01*
X53297Y67047D02*
Y67453D01*
X53703D01*
Y67047D01*
X53297D01*
X55222Y66997D02*
Y67403D01*
X55628D01*
Y66997D01*
X55222D01*
X58147Y56522D02*
Y56928D01*
X58553D01*
Y56522D01*
X58147D01*
X39797Y62532D02*
Y62938D01*
X40203D01*
Y62532D01*
X39797D01*
X34897Y50997D02*
Y51403D01*
X35303D01*
Y50997D01*
X34897D01*
X50197Y77297D02*
Y77703D01*
X50603D01*
Y77297D01*
X50197D01*
X50797D02*
Y77703D01*
X51203D01*
Y77297D01*
X50797D01*
X51797Y45997D02*
Y46403D01*
X52203D01*
Y45997D01*
X51797D01*
Y45497D02*
Y45903D01*
X52203D01*
Y45497D01*
X51797D01*
D57*
X9253Y87100D02*
G03*
X9253Y87100I-203J0D01*
G01*
X9153Y86100D02*
G03*
X9153Y86100I-203J0D01*
G01*
X5278Y88650D02*
G03*
X5278Y88650I-203J0D01*
G01*
X4778Y86100D02*
G03*
X4778Y86100I-203J0D01*
G01*
X7481Y93400D02*
G03*
X7481Y93400I-203J0D01*
G01*
X17428Y74475D02*
G03*
X17428Y74475I-203J0D01*
G01*
X16653Y74625D02*
G03*
X16653Y74625I-203J0D01*
G01*
X6278Y88575D02*
G03*
X6278Y88575I-203J0D01*
G01*
Y89200D02*
G03*
X6278Y89200I-203J0D01*
G01*
X18778Y91050D02*
G03*
X18778Y91050I-203J0D01*
G01*
X18803Y90350D02*
G03*
X18803Y90350I-203J0D01*
G01*
X18778Y91750D02*
G03*
X18778Y91750I-203J0D01*
G01*
Y83125D02*
G03*
X18778Y83125I-203J0D01*
G01*
X19553Y83575D02*
G03*
X19553Y83575I-203J0D01*
G01*
X6278Y89825D02*
G03*
X6278Y89825I-203J0D01*
G01*
X18853Y87025D02*
G03*
X18853Y87025I-203J0D01*
G01*
X3728Y90275D02*
G03*
X3728Y90275I-203J0D01*
G01*
X12458Y91640D02*
G03*
X12458Y91640I-203J0D01*
G01*
X17153Y85575D02*
G03*
X17153Y85575I-203J0D01*
G01*
X10403Y74900D02*
G03*
X10403Y74900I-203J0D01*
G01*
X11103D02*
G03*
X11103Y74900I-203J0D01*
G01*
X11778D02*
G03*
X11778Y74900I-203J0D01*
G01*
X12053Y89900D02*
G03*
X12053Y89900I-203J0D01*
G01*
X12753D02*
G03*
X12753Y89900I-203J0D01*
G01*
X4928Y83150D02*
G03*
X4928Y83150I-203J0D01*
G01*
X5553D02*
G03*
X5553Y83150I-203J0D01*
G01*
X8503Y80250D02*
G03*
X8503Y80250I-203J0D01*
G01*
X7753Y81600D02*
G03*
X7753Y81600I-203J0D01*
G01*
X18778Y81450D02*
G03*
X18778Y81450I-203J0D01*
G01*
Y82250D02*
G03*
X18778Y82250I-203J0D01*
G01*
X64603Y1425D02*
G03*
X64603Y1425I-203J0D01*
G01*
X3853Y26550D02*
G03*
X3853Y26550I-203J0D01*
G01*
X21453Y104175D02*
G03*
X21453Y104175I-203J0D01*
G01*
X27003Y115375D02*
G03*
X27003Y115375I-203J0D01*
G01*
X9853Y110500D02*
G03*
X9853Y110500I-203J0D01*
G01*
X4078Y115700D02*
G03*
X4078Y115700I-203J0D01*
G01*
X56778Y26425D02*
G03*
X56778Y26425I-203J0D01*
G01*
X82828Y27975D02*
G03*
X82828Y27975I-203J0D01*
G01*
X44328Y4175D02*
G03*
X44328Y4175I-203J0D01*
G01*
X82953Y4725D02*
G03*
X82953Y4725I-203J0D01*
G01*
X3303Y5150D02*
G03*
X3303Y5150I-203J0D01*
G01*
X24953Y96475D02*
G03*
X24953Y96475I-203J0D01*
G01*
X72303Y83850D02*
G03*
X72303Y83850I-203J0D01*
G01*
X78003Y94450D02*
G03*
X78003Y94450I-203J0D01*
G01*
X81928Y91900D02*
G03*
X81928Y91900I-203J0D01*
G01*
X65153Y86775D02*
G03*
X65153Y86775I-203J0D01*
G01*
X64353Y94525D02*
G03*
X64353Y94525I-203J0D01*
G01*
X40603Y94900D02*
G03*
X40603Y94900I-203J0D01*
G01*
X7978Y104275D02*
G03*
X7978Y104275I-203J0D01*
G01*
X31853Y96425D02*
G03*
X31853Y96425I-203J0D01*
G01*
X14528Y68325D02*
G03*
X14528Y68325I-203J0D01*
G01*
X14428Y64000D02*
G03*
X14428Y64000I-203J0D01*
G01*
X16803Y59050D02*
G03*
X16803Y59050I-203J0D01*
G01*
X40803Y103600D02*
G03*
X40803Y103600I-203J0D01*
G01*
X40878Y111425D02*
G03*
X40878Y111425I-203J0D01*
G01*
X51353Y111950D02*
G03*
X51353Y111950I-203J0D01*
G01*
X64328Y112025D02*
G03*
X64328Y112025I-203J0D01*
G01*
X77153Y112250D02*
G03*
X77153Y112250I-203J0D01*
G01*
X51428Y103675D02*
G03*
X51428Y103675I-203J0D01*
G01*
X64403Y103525D02*
G03*
X64403Y103525I-203J0D01*
G01*
X77378Y103450D02*
G03*
X77378Y103450I-203J0D01*
G01*
X51278Y94650D02*
G03*
X51278Y94650I-203J0D01*
G01*
X15578Y44500D02*
G03*
X15578Y44500I-203J0D01*
G01*
X26278Y44300D02*
G03*
X26278Y44300I-203J0D01*
G01*
X4778Y43700D02*
G03*
X4778Y43700I-203J0D01*
G01*
X5878Y52800D02*
G03*
X5878Y52800I-203J0D01*
G01*
X6378Y61075D02*
G03*
X6378Y61075I-203J0D01*
G01*
X6678Y67750D02*
G03*
X6678Y67750I-203J0D01*
G01*
X25703Y82925D02*
G03*
X25703Y82925I-203J0D01*
G01*
X65158Y66095D02*
G03*
X65158Y66095I-203J0D01*
G01*
X49703Y80750D02*
G03*
X49703Y80750I-203J0D01*
G01*
X43203Y87000D02*
G03*
X43203Y87000I-203J0D01*
G01*
X42953Y81500D02*
G03*
X42953Y81500I-203J0D01*
G01*
X88203Y71500D02*
G03*
X88203Y71500I-203J0D01*
G01*
Y64750D02*
G03*
X88203Y64750I-203J0D01*
G01*
Y57500D02*
G03*
X88203Y57500I-203J0D01*
G01*
X65158Y67095D02*
G03*
X65158Y67095I-203J0D01*
G01*
X67478Y58975D02*
G03*
X67478Y58975I-203J0D01*
G01*
X67453Y62750D02*
G03*
X67453Y62750I-203J0D01*
G01*
X65128Y54525D02*
G03*
X65128Y54525I-203J0D01*
G01*
X69778Y44025D02*
G03*
X69778Y44025I-203J0D01*
G01*
M02*
