M48
;Layer_Color=9474304
;FILE_FORMAT=4:3
METRIC,LZ
;TYPE=PLATED
T2F00S00C0.200
T3F00S00C0.300
%
T02
X0021638Y0052025
X0021288Y0052575
X0022025Y0053075
X0020825Y0054675
X002775
X00325Y00557
Y005365
X00329Y0053125
X00351Y00512
X003515Y0047275
Y0046775
X003575Y0055775
X0035625Y00594
X00356Y00599
X0034875Y0059875
X0035025Y0060725
Y0061225
X0035575
Y0061725
Y0062225
X0034975Y006225
X0034925Y0061725
X0033625
Y0061075
Y0060425
Y0059775
X0032325
Y0060425
Y0061075
Y0061725
Y0062375
Y0063025
Y0063675
Y0064325
Y0064975
Y0065625
X0031025
Y0064975
Y0064325
Y0063675
Y0063025
Y0062375
Y0061725
Y0061075
Y0060425
Y0059775
X0029725
Y0060425
Y0061075
Y0061725
Y0062375
Y0063025
Y0063675
Y0064325
Y0064975
Y0065625
X003365Y00656
X0034275Y0065575
X003475Y0065125
X0035575Y00653
X0035225Y0065675
X0035625Y0066
Y0064025
Y00635
X0035125Y006345
X00349Y0063
X0033625Y0063025
Y0062375
Y0063675
Y0064325
X0035125Y0064175
X003555Y0060725
X003525Y005905
X003425
X0028525Y0061725
Y006235
X002489Y006294
X0022125Y006235
X002285Y00612
X0020325
X00208Y006295
X0022Y0076775
X002255Y00789
Y00811
Y008325
X00146Y0083225
X0013725Y0083875
X0012875Y0083225
X0012Y0083875
X0011125Y0083225
X00061Y0083275
X0006175Y0082175
Y0080075
X0008075Y0078775
X000855
X0009
X0013225Y0078725
X0013725
X00142Y0078725
X0019025Y0078575
X0029375Y00801
X0031575Y0082875
X0034075Y0081125
Y007945
X003325Y00719
X003525
X0035Y00697
X003325Y0069825
X000275Y008175
X000425Y0083801
X003635Y0077
Y00765
Y007095
X0038625Y0068825
X004Y0062735
X0039775Y00618
X0039075
Y0060925
X0040175Y0060825
X00409
X00405Y00618
X0041225Y00628
X004185Y00633
X0042075Y0064075
X004125Y0063925
X0042025Y0062
X0050765Y006161
X0051125Y006244
X0051525Y00628
X0051905Y006244
X0052765Y006236
X0053175Y006275
X0054275Y006245
X0054325Y00615
X0053525
Y00607
X0054325Y00607
X0055125Y00607
X0055925
Y00615
X0055125
X0056725Y00607
Y00599
X0055925
X0057525
X0059125Y00607
X005995Y0059775
X006235Y005995
X0062325Y00607
X0062625Y006255
X0061925
X0061085
X0060325
X0059525
X0058675
X0057955
X005905Y0066825
X0055425Y00672
X00535Y006725
X005245Y0067875
X0052725Y00615
X0053525Y00567
X0054325
X0055125Y00559
X0055325Y005395
X0053855
X0053215
X0053505Y005493
X0052625Y00549
X0051905Y0055
X0051135Y005481
X0051105Y005408
X0051715Y005402
X0051015Y005649
X0050395Y005625
X0056725Y00567
Y00575
X005835Y0056725
X0059925Y00559
X00601Y00551
X0060045Y005393
X0058855Y005394
X00575Y00542
X00569Y00546
X0056325Y005488
X005685Y0051475
X0057955Y0049745
X0059955
X0061955Y0049245
X0061925Y005395
X0062725Y0054125
X0064225Y0055525
X0064035Y005659
X0064425Y0057225
X00648Y0058525
X0066675Y0061
X0063385Y006255
X0062225Y006825
X0052675Y007655
X0051Y00775
X00504
X0051955Y004952
X0053205Y0049745
X0055205
X0052Y00462
Y00457
X0038525Y005315
X0036175Y005305
Y00537
X003705Y008565
X0030625Y00864
Y0086975
Y00875
Y0088475
X003055Y0089575
X00307Y009145
X0029225Y0091475
X00282Y008945
X00283Y0088425
X00293Y008695
X002995Y0085925
X00296Y0083925
X00146Y0084475
Y008565
X0013725Y0085075
X0012875Y008565
X001285Y0084475
X0012Y0085075
X001115Y008565
X0011125Y008445
X00117Y008845
X00099Y009025
X000945
X0009075Y009065
X000425Y00905
X000325Y00895
X000375Y008575
X0001475Y0092975
X0002175Y0097475
X0007025Y0097275
X0017075Y00887
T03
X0044125Y0004175
X00644Y0001425
X008275Y0004725
X0082625Y0027975
X0056575Y0026425
X0069575Y0044025
X0004575Y00437
X000365Y002655
X00031Y000515
X0005675Y00528
X0006175Y0061075
X0006475Y006775
X0014325Y0068325
X0014225Y0064
X00166Y005905
X001645Y0074625
X0017225Y0074475
X0011575Y00749
X00109
X00102
X00083Y008025
X000755Y00816
X000535Y008315
X0004725
X0018575Y0083125
Y008225
Y008145
X001935Y0083575
X00255Y0082925
X0026075Y00443
X0015375Y00445
X0064925Y0054525
X0067275Y0058975
X006725Y006275
X0064955Y0066095
Y0067095
X00721Y008385
X00495Y008075
X004275Y00815
X0088Y00715
Y006475
Y00575
X0081725Y00919
X00778Y009445
X0077175Y010345
X007695Y011225
X0064125Y0112025
X00642Y0103525
X006415Y0094525
X006495Y0086775
X0051075Y009465
X0051225Y0103675
X005115Y011195
X0040675Y0111425
X00406Y01036
X00404Y00949
X0043Y0087
X003165Y0096425
X002475Y0096475
X0018575Y009175
Y009105
X00186Y009035
X001865Y0087025
X001695Y0085575
X000895Y00861
X000905Y00871
X0006075Y0088575
Y00892
Y0089825
X0005075Y008865
X0004575Y00861
X0003525Y0090275
X0007278Y00934
X0012255Y009164
X001255Y00899
X001185
X0007775Y0104275
X000965Y01105
X0003875Y01157
X00268Y0115375
X002125Y0104175
M30
