M48
;Layer_Color=9474304
;FILE_FORMAT=4:3
METRIC,LZ
;TYPE=PLATED
T1F00S00C0.100
%
T01
X0026225Y005695
X002775Y005895
X002825Y005845
X003025
X003225Y005795
X003425
X003525Y005845
X0034275Y006045
Y0064325
X003375Y006745
X003175Y006745
X002925Y006745
X002825Y006695
X002775Y006495
Y006195
X0026225Y006845
X001575Y00756
X0014325Y0074825
X0012375Y00747
X0013375Y00772
X001405
X0014825Y0078625
X0016325
X001705Y008015
X001805Y0082825
X001425Y008145
X001345
X001225
X001185
X001105Y007865
X0010325Y007785
X0009175
X0008825Y0078175
X0007675Y0077625
X0006775Y0077075
X0007325Y00765
X000835
X00094Y007645
X00103
X0008911Y0080125
X000755Y00794
X00068
X0006275Y00788
Y007795
X0037775Y006845
X003675Y006695
X003625Y006595
X003675Y006345
Y006195
Y005995
Y005845
X003775Y005695
X0019053Y00845
X001915Y00857
X0016325Y0085075
X00148Y0088425
Y009
X0013525Y0091125
X0012825Y009065
X001165
X001145Y008785
Y00875
X0013075
X0014225Y009195
X000705Y0091925
X0006375Y009155
X0006325Y009085
X000685Y009035
X000745Y00898
X00079Y0089375
X0008475
X00077Y0091175
X00062Y0087775
X0006144Y0086744
X0006214Y0086375
X0008882Y0085482
X000925Y0085475
X00034Y0091825
M30
