G04 Layer_Color=128*
%FSLAX43Y43*%
%MOMM*%
G71*
G01*
G75*
%ADD56C,0.051*%
D56*
X55025Y55900D02*
X55225D01*
X55125Y55800D02*
Y56000D01*
X62250Y59950D02*
X62450D01*
X62350Y59850D02*
Y60050D01*
X52350Y67875D02*
X52550D01*
X52450Y67775D02*
Y67975D01*
X58950Y66825D02*
X59150D01*
X59050Y66725D02*
Y66925D01*
X64125Y55525D02*
X64325D01*
X64225Y55425D02*
Y55625D01*
X66575Y61000D02*
X66775D01*
X66675Y60900D02*
Y61100D01*
X64700Y58525D02*
X64900D01*
X64800Y58425D02*
Y58625D01*
X64325Y57225D02*
X64525D01*
X64425Y57125D02*
Y57325D01*
X60000Y55100D02*
X60200D01*
X60100Y55000D02*
Y55200D01*
X57400Y54200D02*
X57600D01*
X57500Y54100D02*
Y54300D01*
X56800Y54600D02*
X57000D01*
X56900Y54500D02*
Y54700D01*
X59850Y59775D02*
X60050D01*
X59950Y59675D02*
Y59875D01*
X61855Y49245D02*
X62055D01*
X61955Y49145D02*
Y49345D01*
X59855Y49745D02*
X60055D01*
X59955Y49645D02*
Y49845D01*
X57855Y49745D02*
X58055D01*
X57955Y49645D02*
Y49845D01*
X55105Y49745D02*
X55305D01*
X55205Y49645D02*
Y49845D01*
X51855Y49520D02*
X52055D01*
X51955Y49420D02*
Y49620D01*
X53105Y49745D02*
X53305D01*
X53205Y49645D02*
Y49845D01*
X62125Y68250D02*
X62325D01*
X62225Y68150D02*
Y68350D01*
X54225Y60700D02*
X54425D01*
X54325Y60600D02*
Y60800D01*
X53425Y60700D02*
X53625D01*
X53525Y60600D02*
Y60800D01*
X53755Y53950D02*
X53955D01*
X53855Y53850D02*
Y54050D01*
X55225Y53950D02*
X55425D01*
X55325Y53850D02*
Y54050D01*
X52665Y62360D02*
X52865D01*
X52765Y62260D02*
Y62460D01*
X58755Y53940D02*
X58955D01*
X58855Y53840D02*
Y54040D01*
X51005Y54080D02*
X51205D01*
X51105Y53980D02*
Y54180D01*
X61825Y53950D02*
X62025D01*
X61925Y53850D02*
Y54050D01*
X51615Y54020D02*
X51815D01*
X51715Y53920D02*
Y54120D01*
X53115Y53950D02*
X53315D01*
X53215Y53850D02*
Y54050D01*
X62225Y60700D02*
X62425D01*
X62325Y60600D02*
Y60800D01*
X59825Y55900D02*
X60025D01*
X59925Y55800D02*
Y56000D01*
X59945Y53930D02*
X60145D01*
X60045Y53830D02*
Y54030D01*
X62625Y54125D02*
X62825D01*
X62725Y54025D02*
Y54225D01*
X54175Y62450D02*
X54375D01*
X54275Y62350D02*
Y62550D01*
X51425Y62800D02*
X51625D01*
X51525Y62700D02*
Y62900D01*
X59025Y60700D02*
X59225D01*
X59125Y60600D02*
Y60800D01*
X60225Y62550D02*
X60425D01*
X60325Y62450D02*
Y62650D01*
X61825Y62550D02*
X62025D01*
X61925Y62450D02*
Y62650D01*
X62525Y62550D02*
X62725D01*
X62625Y62450D02*
Y62650D01*
X63285Y62550D02*
X63485D01*
X63385Y62450D02*
Y62650D01*
X60985Y62550D02*
X61185D01*
X61085Y62450D02*
Y62650D01*
X59425Y62550D02*
X59625D01*
X59525Y62450D02*
Y62650D01*
X58575Y62550D02*
X58775D01*
X58675Y62450D02*
Y62650D01*
X57855Y62550D02*
X58055D01*
X57955Y62450D02*
Y62650D01*
X56625Y60700D02*
X56825D01*
X56725Y60600D02*
Y60800D01*
X53075Y62750D02*
X53275D01*
X53175Y62650D02*
Y62850D01*
X63935Y56590D02*
X64135D01*
X64035Y56490D02*
Y56690D01*
X53405Y54930D02*
X53605D01*
X53505Y54830D02*
Y55030D01*
X56225Y54880D02*
X56425D01*
X56325Y54780D02*
Y54980D01*
X55025Y60700D02*
X55225D01*
X55125Y60600D02*
Y60800D01*
X53425Y61500D02*
X53625D01*
X53525Y61400D02*
Y61600D01*
X53425Y56700D02*
X53625D01*
X53525Y56600D02*
Y56800D01*
X54225Y56700D02*
X54425D01*
X54325Y56600D02*
Y56800D01*
X55825Y61500D02*
X56025D01*
X55925Y61400D02*
Y61600D01*
X55825Y60700D02*
X56025D01*
X55925Y60600D02*
Y60800D01*
X50295Y56250D02*
X50495D01*
X50395Y56150D02*
Y56350D01*
X51805Y55000D02*
X52005D01*
X51905Y54900D02*
Y55100D01*
X52525Y54900D02*
X52725D01*
X52625Y54800D02*
Y55000D01*
X51035Y54810D02*
X51235D01*
X51135Y54710D02*
Y54910D01*
X54225Y61500D02*
X54425D01*
X54325Y61400D02*
Y61600D01*
X55025Y61500D02*
X55225D01*
X55125Y61400D02*
Y61600D01*
X56625Y59900D02*
X56825D01*
X56725Y59800D02*
Y60000D01*
X52625Y61500D02*
X52825D01*
X52725Y61400D02*
Y61600D01*
X55825Y59900D02*
X56025D01*
X55925Y59800D02*
Y60000D01*
X50665Y61610D02*
X50865D01*
X50765Y61510D02*
Y61710D01*
X51025Y62440D02*
X51225D01*
X51125Y62340D02*
Y62540D01*
X51805Y62440D02*
X52005D01*
X51905Y62340D02*
Y62540D01*
X57425Y59900D02*
X57625D01*
X57525Y59800D02*
Y60000D01*
X50915Y56490D02*
X51115D01*
X51015Y56390D02*
Y56590D01*
X34900Y69700D02*
X35100D01*
X35000Y69600D02*
Y69800D01*
X20225Y61200D02*
X20425D01*
X20325Y61100D02*
Y61300D01*
X22750Y61200D02*
X22950D01*
X22850Y61100D02*
Y61300D01*
X29275Y80100D02*
X29475D01*
X29375Y80000D02*
Y80200D01*
X29200Y86950D02*
X29400D01*
X29300Y86850D02*
Y87050D01*
X29500Y83925D02*
X29700D01*
X29600Y83825D02*
Y84025D01*
X30525Y86400D02*
X30725D01*
X30625Y86300D02*
Y86500D01*
X31475Y82875D02*
X31675D01*
X31575Y82775D02*
Y82975D01*
X33975Y81125D02*
X34175D01*
X34075Y81025D02*
Y81225D01*
X6925Y97275D02*
X7125D01*
X7025Y97175D02*
Y97375D01*
X2075Y97475D02*
X2275D01*
X2175Y97375D02*
Y97575D01*
X21538Y52025D02*
X21737D01*
X21638Y51925D02*
Y52125D01*
X21188Y52575D02*
X21388D01*
X21288Y52475D02*
Y52675D01*
X36075Y53050D02*
X36275D01*
X36175Y52950D02*
Y53150D01*
X32800Y53125D02*
X33000D01*
X32900Y53025D02*
Y53225D01*
X32400Y55700D02*
X32600D01*
X32500Y55600D02*
Y55800D01*
X33150Y69825D02*
X33350D01*
X33250Y69725D02*
Y69925D01*
X21925Y53075D02*
X22125D01*
X22025Y52975D02*
Y53175D01*
X35650Y55775D02*
X35850D01*
X35750Y55675D02*
Y55875D01*
X24790Y62940D02*
X24990D01*
X24890Y62840D02*
Y63040D01*
X20700Y62950D02*
X20900D01*
X20800Y62850D02*
Y63050D01*
X20725Y54675D02*
X20925D01*
X20825Y54575D02*
Y54775D01*
X27650Y54675D02*
X27850D01*
X27750Y54575D02*
Y54775D01*
X22025Y62350D02*
X22225D01*
X22125Y62250D02*
Y62450D01*
X28425Y61725D02*
X28625D01*
X28525Y61625D02*
Y61825D01*
X34150Y59050D02*
X34350D01*
X34250Y58950D02*
Y59150D01*
X36075Y53700D02*
X36275D01*
X36175Y53600D02*
Y53800D01*
X18925Y78575D02*
X19125D01*
X19025Y78475D02*
Y78675D01*
X11600Y88450D02*
X11800D01*
X11700Y88350D02*
Y88550D01*
X8975Y90650D02*
X9175D01*
X9075Y90550D02*
Y90750D01*
X8900Y87100D02*
X9200D01*
X9050Y86950D02*
Y87250D01*
X8800Y86100D02*
X9100D01*
X8950Y85950D02*
Y86250D01*
X4925Y88650D02*
X5225D01*
X5075Y88500D02*
Y88800D01*
X4425Y86100D02*
X4725D01*
X4575Y85950D02*
Y86250D01*
X7128Y93400D02*
X7428D01*
X7278Y93250D02*
Y93550D01*
X17075Y74475D02*
X17375D01*
X17225Y74325D02*
Y74625D01*
X16300D02*
X16600D01*
X16450Y74475D02*
Y74775D01*
X5925Y88575D02*
X6225D01*
X6075Y88425D02*
Y88725D01*
X5925Y89200D02*
X6225D01*
X6075Y89050D02*
Y89350D01*
X18425Y91050D02*
X18725D01*
X18575Y90900D02*
Y91200D01*
X18450Y90350D02*
X18750D01*
X18600Y90200D02*
Y90500D01*
X18425Y91750D02*
X18725D01*
X18575Y91600D02*
Y91900D01*
X2650Y81750D02*
X2850D01*
X2750Y81650D02*
Y81850D01*
X4150Y83801D02*
X4350D01*
X4250Y83701D02*
Y83901D01*
X3650Y85750D02*
X3850D01*
X3750Y85650D02*
Y85850D01*
X3150Y89500D02*
X3350D01*
X3250Y89400D02*
Y89600D01*
X4150Y90500D02*
X4350D01*
X4250Y90400D02*
Y90600D01*
X1375Y92975D02*
X1575D01*
X1475Y92875D02*
Y93075D01*
X18425Y83125D02*
X18725D01*
X18575Y82975D02*
Y83275D01*
X19200Y83575D02*
X19500D01*
X19350Y83425D02*
Y83725D01*
X12750Y84475D02*
X12950D01*
X12850Y84375D02*
Y84575D01*
X5925Y89825D02*
X6225D01*
X6075Y89675D02*
Y89975D01*
X18500Y87025D02*
X18800D01*
X18650Y86875D02*
Y87175D01*
X3375Y90275D02*
X3675D01*
X3525Y90125D02*
Y90425D01*
X22450Y78900D02*
X22650D01*
X22550Y78800D02*
Y79000D01*
X22450Y81100D02*
X22650D01*
X22550Y81000D02*
Y81200D01*
X21900Y76775D02*
X22100D01*
X22000Y76675D02*
Y76875D01*
X22450Y83250D02*
X22650D01*
X22550Y83150D02*
Y83350D01*
X12105Y91640D02*
X12405D01*
X12255Y91490D02*
Y91790D01*
X16800Y85575D02*
X17100D01*
X16950Y85425D02*
Y85725D01*
X10050Y74900D02*
X10350D01*
X10200Y74750D02*
Y75050D01*
X10750Y74900D02*
X11050D01*
X10900Y74750D02*
Y75050D01*
X11425Y74900D02*
X11725D01*
X11575Y74750D02*
Y75050D01*
X11700Y89900D02*
X12000D01*
X11850Y89750D02*
Y90050D01*
X12400Y89900D02*
X12700D01*
X12550Y89750D02*
Y90050D01*
X9800Y90250D02*
X10000D01*
X9900Y90150D02*
Y90350D01*
X16975Y88700D02*
X17175D01*
X17075Y88600D02*
Y88800D01*
X11050Y85650D02*
X11250D01*
X11150Y85550D02*
Y85750D01*
X11025Y84450D02*
X11225D01*
X11125Y84350D02*
Y84550D01*
X11025Y83225D02*
X11225D01*
X11125Y83125D02*
Y83325D01*
X14500Y83225D02*
X14700D01*
X14600Y83125D02*
Y83325D01*
X14500Y84475D02*
X14700D01*
X14600Y84375D02*
Y84575D01*
X14500Y85650D02*
X14700D01*
X14600Y85550D02*
Y85750D01*
X12775Y85650D02*
X12975D01*
X12875Y85550D02*
Y85750D01*
X12775Y83225D02*
X12975D01*
X12875Y83125D02*
Y83325D01*
X4575Y83150D02*
X4875D01*
X4725Y83000D02*
Y83300D01*
X5200Y83150D02*
X5500D01*
X5350Y83000D02*
Y83300D01*
X6075Y82175D02*
X6275D01*
X6175Y82075D02*
Y82275D01*
X6075Y80075D02*
X6275D01*
X6175Y79975D02*
Y80175D01*
X8150Y80250D02*
X8450D01*
X8300Y80100D02*
Y80400D01*
X7400Y81600D02*
X7700D01*
X7550Y81450D02*
Y81750D01*
X6000Y83275D02*
X6200D01*
X6100Y83175D02*
Y83375D01*
X8900Y78775D02*
X9100D01*
X9000Y78675D02*
Y78875D01*
X7975Y78775D02*
X8175D01*
X8075Y78675D02*
Y78875D01*
X8450Y78775D02*
X8650D01*
X8550Y78675D02*
Y78875D01*
X11900Y83875D02*
X12100D01*
X12000Y83775D02*
Y83975D01*
X11900Y85075D02*
X12100D01*
X12000Y84975D02*
Y85175D01*
X13625Y85075D02*
X13825D01*
X13725Y84975D02*
Y85175D01*
X13625Y83875D02*
X13825D01*
X13725Y83775D02*
Y83975D01*
X14100Y78725D02*
X14300D01*
X14200Y78625D02*
Y78825D01*
X13625Y78725D02*
X13825D01*
X13725Y78625D02*
Y78825D01*
X13125Y78725D02*
X13325D01*
X13225Y78625D02*
Y78825D01*
X9350Y90250D02*
X9550D01*
X9450Y90150D02*
Y90350D01*
X18425Y81450D02*
X18725D01*
X18575Y81300D02*
Y81600D01*
X18425Y82250D02*
X18725D01*
X18575Y82100D02*
Y82400D01*
X35150Y71900D02*
X35350D01*
X35250Y71800D02*
Y72000D01*
X33150Y71900D02*
X33350D01*
X33250Y71800D02*
Y72000D01*
X35025Y63450D02*
X35225D01*
X35125Y63350D02*
Y63550D01*
X35525Y64025D02*
X35725D01*
X35625Y63925D02*
Y64125D01*
X34925Y61225D02*
X35125D01*
X35025Y61125D02*
Y61325D01*
X34175Y65575D02*
X34375D01*
X34275Y65475D02*
Y65675D01*
X35525Y66000D02*
X35725D01*
X35625Y65900D02*
Y66100D01*
X35125Y65675D02*
X35325D01*
X35225Y65575D02*
Y65775D01*
X35475Y65300D02*
X35675D01*
X35575Y65200D02*
Y65400D01*
X35025Y64175D02*
X35225D01*
X35125Y64075D02*
Y64275D01*
X35525Y63500D02*
X35725D01*
X35625Y63400D02*
Y63600D01*
X35475Y62225D02*
X35675D01*
X35575Y62125D02*
Y62325D01*
X35475Y61725D02*
X35675D01*
X35575Y61625D02*
Y61825D01*
X35475Y61225D02*
X35675D01*
X35575Y61125D02*
Y61325D01*
X35450Y60725D02*
X35650D01*
X35550Y60625D02*
Y60825D01*
X34775Y59875D02*
X34975D01*
X34875Y59775D02*
Y59975D01*
X35525Y59400D02*
X35725D01*
X35625Y59300D02*
Y59500D01*
X32400Y53650D02*
X32600D01*
X32500Y53550D02*
Y53750D01*
X29125Y91475D02*
X29325D01*
X29225Y91375D02*
Y91575D01*
X64250Y1425D02*
X64550D01*
X64400Y1275D02*
Y1575D01*
X3500Y26550D02*
X3800D01*
X3650Y26400D02*
Y26700D01*
X21100Y104175D02*
X21400D01*
X21250Y104025D02*
Y104325D01*
X26650Y115375D02*
X26950D01*
X26800Y115225D02*
Y115525D01*
X9500Y110500D02*
X9800D01*
X9650Y110350D02*
Y110650D01*
X3725Y115700D02*
X4025D01*
X3875Y115550D02*
Y115850D01*
X56425Y26425D02*
X56725D01*
X56575Y26275D02*
Y26575D01*
X82475Y27975D02*
X82775D01*
X82625Y27825D02*
Y28125D01*
X43975Y4175D02*
X44275D01*
X44125Y4025D02*
Y4325D01*
X82600Y4725D02*
X82900D01*
X82750Y4575D02*
Y4875D01*
X2950Y5150D02*
X3250D01*
X3100Y5000D02*
Y5300D01*
X24600Y96475D02*
X24900D01*
X24750Y96325D02*
Y96625D01*
X71950Y83850D02*
X72250D01*
X72100Y83700D02*
Y84000D01*
X77650Y94450D02*
X77950D01*
X77800Y94300D02*
Y94600D01*
X81575Y91900D02*
X81875D01*
X81725Y91750D02*
Y92050D01*
X64800Y86775D02*
X65100D01*
X64950Y86625D02*
Y86925D01*
X64000Y94525D02*
X64300D01*
X64150Y94375D02*
Y94675D01*
X40250Y94900D02*
X40550D01*
X40400Y94750D02*
Y95050D01*
X7625Y104275D02*
X7925D01*
X7775Y104125D02*
Y104425D01*
X31500Y96425D02*
X31800D01*
X31650Y96275D02*
Y96575D01*
X33975Y79450D02*
X34175D01*
X34075Y79350D02*
Y79550D01*
X14175Y68325D02*
X14475D01*
X14325Y68175D02*
Y68475D01*
X14075Y64000D02*
X14375D01*
X14225Y63850D02*
Y64150D01*
X16450Y59050D02*
X16750D01*
X16600Y58900D02*
Y59200D01*
X40450Y103600D02*
X40750D01*
X40600Y103450D02*
Y103750D01*
X40525Y111425D02*
X40825D01*
X40675Y111275D02*
Y111575D01*
X51000Y111950D02*
X51300D01*
X51150Y111800D02*
Y112100D01*
X63975Y112025D02*
X64275D01*
X64125Y111875D02*
Y112175D01*
X76800Y112250D02*
X77100D01*
X76950Y112100D02*
Y112400D01*
X51075Y103675D02*
X51375D01*
X51225Y103525D02*
Y103825D01*
X64050Y103525D02*
X64350D01*
X64200Y103375D02*
Y103675D01*
X77025Y103450D02*
X77325D01*
X77175Y103300D02*
Y103600D01*
X50925Y94650D02*
X51225D01*
X51075Y94500D02*
Y94800D01*
X15225Y44500D02*
X15525D01*
X15375Y44350D02*
Y44650D01*
X25925Y44300D02*
X26225D01*
X26075Y44150D02*
Y44450D01*
X4425Y43700D02*
X4725D01*
X4575Y43550D02*
Y43850D01*
X5525Y52800D02*
X5825D01*
X5675Y52650D02*
Y52950D01*
X6025Y61075D02*
X6325D01*
X6175Y60925D02*
Y61225D01*
X6325Y67750D02*
X6625D01*
X6475Y67600D02*
Y67900D01*
X25350Y82925D02*
X25650D01*
X25500Y82775D02*
Y83075D01*
X28100Y89450D02*
X28300D01*
X28200Y89350D02*
Y89550D01*
X30525Y88475D02*
X30725D01*
X30625Y88375D02*
Y88575D01*
X28200Y88425D02*
X28400D01*
X28300Y88325D02*
Y88525D01*
X30600Y91450D02*
X30800D01*
X30700Y91350D02*
Y91550D01*
X29850Y85925D02*
X30050D01*
X29950Y85825D02*
Y86025D01*
X36950Y85650D02*
X37150D01*
X37050Y85550D02*
Y85750D01*
X30525Y86975D02*
X30725D01*
X30625Y86875D02*
Y87075D01*
X30525Y87500D02*
X30725D01*
X30625Y87400D02*
Y87600D01*
X30450Y89575D02*
X30650D01*
X30550Y89475D02*
Y89675D01*
X34650Y65125D02*
X34850D01*
X34750Y65025D02*
Y65225D01*
X32225Y64975D02*
X32425D01*
X32325Y64875D02*
Y65075D01*
X30925Y61725D02*
X31125D01*
X31025Y61625D02*
Y61825D01*
X30925Y60425D02*
X31125D01*
X31025Y60325D02*
Y60525D01*
X34875Y62250D02*
X35075D01*
X34975Y62150D02*
Y62350D01*
X33550Y65600D02*
X33750D01*
X33650Y65500D02*
Y65700D01*
X33525Y64325D02*
X33725D01*
X33625Y64225D02*
Y64425D01*
X33525Y62375D02*
X33725D01*
X33625Y62275D02*
Y62475D01*
X33525Y60425D02*
X33725D01*
X33625Y60325D02*
Y60525D01*
X33525Y61075D02*
X33725D01*
X33625Y60975D02*
Y61175D01*
X33525Y59775D02*
X33725D01*
X33625Y59675D02*
Y59875D01*
X32225Y65625D02*
X32425D01*
X32325Y65525D02*
Y65725D01*
X32225Y63675D02*
X32425D01*
X32325Y63575D02*
Y63775D01*
X32225Y63025D02*
X32425D01*
X32325Y62925D02*
Y63125D01*
X32225Y62375D02*
X32425D01*
X32325Y62275D02*
Y62475D01*
X32225Y61075D02*
X32425D01*
X32325Y60975D02*
Y61175D01*
X32225Y60425D02*
X32425D01*
X32325Y60325D02*
Y60525D01*
X32225Y59775D02*
X32425D01*
X32325Y59675D02*
Y59875D01*
X30925Y63675D02*
X31125D01*
X31025Y63575D02*
Y63775D01*
X30925Y64325D02*
X31125D01*
X31025Y64225D02*
Y64425D01*
X30925Y65625D02*
X31125D01*
X31025Y65525D02*
Y65725D01*
X29625Y65625D02*
X29825D01*
X29725Y65525D02*
Y65725D01*
X29625Y64975D02*
X29825D01*
X29725Y64875D02*
Y65075D01*
X29625Y61725D02*
X29825D01*
X29725Y61625D02*
Y61825D01*
X29625Y60425D02*
X29825D01*
X29725Y60325D02*
Y60525D01*
X29625Y59775D02*
X29825D01*
X29725Y59675D02*
Y59875D01*
X30925Y59775D02*
X31125D01*
X31025Y59675D02*
Y59875D01*
X30925Y64975D02*
X31125D01*
X31025Y64875D02*
Y65075D01*
X32225Y64325D02*
X32425D01*
X32325Y64225D02*
Y64425D01*
X29625Y63025D02*
X29825D01*
X29725Y62925D02*
Y63125D01*
X30925Y61075D02*
X31125D01*
X31025Y60975D02*
Y61175D01*
X33525Y63675D02*
X33725D01*
X33625Y63575D02*
Y63775D01*
X33525Y61725D02*
X33725D01*
X33625Y61625D02*
Y61825D01*
X33525Y63025D02*
X33725D01*
X33625Y62925D02*
Y63125D01*
X34825Y61725D02*
X35025D01*
X34925Y61625D02*
Y61825D01*
X34800Y63000D02*
X35000D01*
X34900Y62900D02*
Y63100D01*
X34925Y60725D02*
X35125D01*
X35025Y60625D02*
Y60825D01*
X29625Y64325D02*
X29825D01*
X29725Y64225D02*
Y64425D01*
X30925Y63025D02*
X31125D01*
X31025Y62925D02*
Y63125D01*
X32225Y61725D02*
X32425D01*
X32325Y61625D02*
Y61825D01*
X29625Y62375D02*
X29825D01*
X29725Y62275D02*
Y62475D01*
X29625Y61075D02*
X29825D01*
X29725Y60975D02*
Y61175D01*
X29625Y63675D02*
X29825D01*
X29725Y63575D02*
Y63775D01*
X30925Y62375D02*
X31125D01*
X31025Y62275D02*
Y62475D01*
X38425Y53150D02*
X38625D01*
X38525Y53050D02*
Y53250D01*
X28425Y62350D02*
X28625D01*
X28525Y62250D02*
Y62450D01*
X35150Y59050D02*
X35350D01*
X35250Y58950D02*
Y59150D01*
X35500Y59900D02*
X35700D01*
X35600Y59800D02*
Y60000D01*
X38975Y60925D02*
X39175D01*
X39075Y60825D02*
Y61025D01*
X40400Y61800D02*
X40600D01*
X40500Y61700D02*
Y61900D01*
X41150Y63925D02*
X41350D01*
X41250Y63825D02*
Y64025D01*
X41750Y63300D02*
X41950D01*
X41850Y63200D02*
Y63400D01*
X41125Y62800D02*
X41325D01*
X41225Y62700D02*
Y62900D01*
X56750Y51475D02*
X56950D01*
X56850Y51375D02*
Y51575D01*
X38525Y68825D02*
X38725D01*
X38625Y68725D02*
Y68925D01*
X41925Y62000D02*
X42125D01*
X42025Y61900D02*
Y62100D01*
X40800Y60825D02*
X41000D01*
X40900Y60725D02*
Y60925D01*
X40075Y60825D02*
X40275D01*
X40175Y60725D02*
Y60925D01*
X41975Y64075D02*
X42175D01*
X42075Y63975D02*
Y64175D01*
X39675Y61800D02*
X39875D01*
X39775Y61700D02*
Y61900D01*
X56625Y57500D02*
X56825D01*
X56725Y57400D02*
Y57600D01*
X38975Y61800D02*
X39175D01*
X39075Y61700D02*
Y61900D01*
X56625Y56700D02*
X56825D01*
X56725Y56600D02*
Y56800D01*
X64805Y66095D02*
X65105D01*
X64955Y65945D02*
Y66245D01*
X52575Y76550D02*
X52775D01*
X52675Y76450D02*
Y76650D01*
X36250Y70950D02*
X36450D01*
X36350Y70850D02*
Y71050D01*
X36250Y76500D02*
X36450D01*
X36350Y76400D02*
Y76600D01*
X36250Y77000D02*
X36450D01*
X36350Y76900D02*
Y77100D01*
X49350Y80750D02*
X49650D01*
X49500Y80600D02*
Y80900D01*
X42850Y87000D02*
X43150D01*
X43000Y86850D02*
Y87150D01*
X42600Y81500D02*
X42900D01*
X42750Y81350D02*
Y81650D01*
X87850Y71500D02*
X88150D01*
X88000Y71350D02*
Y71650D01*
X87850Y64750D02*
X88150D01*
X88000Y64600D02*
Y64900D01*
X87850Y57500D02*
X88150D01*
X88000Y57350D02*
Y57650D01*
X35050Y46775D02*
X35250D01*
X35150Y46675D02*
Y46875D01*
X64805Y67095D02*
X65105D01*
X64955Y66945D02*
Y67245D01*
X35050Y47275D02*
X35250D01*
X35150Y47175D02*
Y47375D01*
X67125Y58975D02*
X67425D01*
X67275Y58825D02*
Y59125D01*
X67100Y62750D02*
X67400D01*
X67250Y62600D02*
Y62900D01*
X64775Y54525D02*
X65075D01*
X64925Y54375D02*
Y54675D01*
X53400Y67250D02*
X53600D01*
X53500Y67150D02*
Y67350D01*
X55325Y67200D02*
X55525D01*
X55425Y67100D02*
Y67300D01*
X58250Y56725D02*
X58450D01*
X58350Y56625D02*
Y56825D01*
X39900Y62735D02*
X40100D01*
X40000Y62635D02*
Y62835D01*
X35000Y51200D02*
X35200D01*
X35100Y51100D02*
Y51300D01*
X50300Y77500D02*
X50500D01*
X50400Y77400D02*
Y77600D01*
X50900Y77500D02*
X51100D01*
X51000Y77400D02*
Y77600D01*
X69425Y44025D02*
X69725D01*
X69575Y43875D02*
Y44175D01*
X51900Y46200D02*
X52100D01*
X52000Y46100D02*
Y46300D01*
X51900Y45700D02*
X52100D01*
X52000Y45600D02*
Y45800D01*
M02*
